<svg width="125" height="39" viewBox="0 0 125 39" fill="none" xmlns="http://www.w3.org/2000/svg">
<path d="M64.1569 25.6798C64.9087 25.6798 65.7738 25.7605 66.7525 25.9217C67.7453 26.083 68.4686 26.255 68.9225 26.4378V29.5662H68.1141C66.8092 27.8784 65.0788 27.0344 62.923 27.0344C61.9869 27.0344 61.1288 27.2441 60.3488 27.6633C59.5829 28.0719 58.9801 28.647 58.5404 29.3888C58.1007 30.1199 57.8809 30.9423 57.8809 31.8561C57.8809 32.9097 58.0936 33.8719 58.5191 34.7427C58.9588 35.6135 59.6183 36.3123 60.4977 36.8391C61.3912 37.3659 62.4904 37.6293 63.7953 37.6293C65.0008 37.6293 66.7312 36.9412 68.9863 35.5651L69.6246 36.3392L65.71 38.6452C65.1852 38.785 64.6746 38.8764 64.1782 38.9194C63.696 38.9731 63.1712 39 62.6039 39C61.1146 39 59.7956 38.7259 58.6468 38.1776C57.4979 37.6293 56.6044 36.8767 55.9661 35.9199C55.3279 34.9523 55.0088 33.8558 55.0088 32.6302C55.0088 31.3723 55.491 30.2113 56.4555 29.1469C57.4199 28.0719 58.6184 27.2279 60.0509 26.6151C61.4834 25.9916 62.8521 25.6798 64.1569 25.6798Z" fill="#003F62"/>
<path d="M78.0773 38.6775H72.1417V38.1776L74.0351 37.0487V32.3399L72.1417 31.3401V30.8402L75.7796 29.8081H76.5881V37.468L78.5028 38.0324L78.0773 38.6775ZM75.2265 24.9703C75.652 24.9703 75.9995 25.0885 76.269 25.3251C76.5526 25.5616 76.6945 25.8572 76.6945 26.212C76.6945 26.4593 76.5952 26.6958 76.3966 26.9215C76.1981 27.1366 75.9498 27.3086 75.652 27.4376C75.3541 27.5666 75.0634 27.6311 74.7797 27.6311C74.3542 27.6311 73.9997 27.5128 73.716 27.2763C73.4465 27.0398 73.3118 26.7442 73.3118 26.3894C73.3118 26.1421 73.4111 25.911 73.6096 25.696C73.8082 25.4702 74.0564 25.2928 74.3542 25.1638C74.6521 25.0348 74.9428 24.9703 75.2265 24.9703Z" fill="#003F62"/>
<path d="M93.5797 38.6936H89.5375V33.2591C89.5375 32.6678 89.4169 32.2539 89.1758 32.0174C88.9347 31.7809 88.5021 31.6626 87.8781 31.6626C87.41 31.6626 86.942 31.7271 86.4739 31.8561C86.0201 31.9851 85.4811 32.2324 84.857 32.5979V37.4841L86.7718 38.0486L86.3463 38.6936H80.4106V38.1937L82.304 37.0649V32.5012L80.4106 31.6626V31.1627L84.0486 29.8081L84.7506 31.9045L87.7717 30.0823C88.0695 29.9963 88.4596 29.9533 88.9418 29.9533C89.9062 29.9533 90.6721 30.179 91.2395 30.6305C91.8068 31.0713 92.0905 31.6734 92.0905 32.4367V37.468L94.0052 38.0486L93.5797 38.6936Z" fill="#003F62"/>
<path d="M101.638 38.6775H95.7019V38.1776L97.5953 37.0487V32.3399L95.7019 31.3401V30.8402L99.3399 29.8081H100.148V37.468L102.063 38.0324L101.638 38.6775ZM98.7867 24.9703C99.2122 24.9703 99.5597 25.0885 99.8292 25.3251C100.113 25.5616 100.255 25.8572 100.255 26.212C100.255 26.4593 100.155 26.6958 99.9568 26.9215C99.7583 27.1366 99.5101 27.3086 99.2122 27.4376C98.9144 27.5666 98.6236 27.6311 98.34 27.6311C97.9145 27.6311 97.5599 27.5128 97.2762 27.2763C97.0067 27.0398 96.872 26.7442 96.872 26.3894C96.872 26.1421 96.9713 25.911 97.1698 25.696C97.3684 25.4702 97.6166 25.2928 97.9145 25.1638C98.2123 25.0348 98.5031 24.9703 98.7867 24.9703Z" fill="#003F62"/>
<path d="M109.906 38.0324L109.481 38.6775H103.545V38.1776L105.439 37.0487V27.1312L103.545 26.1314V25.6315L107.183 24.5994H107.992V37.468L109.906 38.0324ZM116.714 38.6775H113.119L109.119 34.4202L113.098 31.8884L111.055 30.7596L111.481 30.1145H116.566V30.6144L111.63 33.759L115.225 37.468L117.14 38.0324L116.714 38.6775Z" fill="#003F62"/>
<path d="M124.575 38.6775H118.639V38.1776L120.532 37.0487V32.3399L118.639 31.3401V30.8402L122.277 29.8081H123.085V37.468L125 38.0324L124.575 38.6775ZM121.724 24.9703C122.149 24.9703 122.497 25.0885 122.766 25.3251C123.05 25.5616 123.192 25.8572 123.192 26.212C123.192 26.4593 123.092 26.6958 122.894 26.9215C122.695 27.1366 122.447 27.3086 122.149 27.4376C121.851 27.5666 121.561 27.6311 121.277 27.6311C120.851 27.6311 120.497 27.5128 120.213 27.2763C119.944 27.0398 119.809 26.7442 119.809 26.3894C119.809 26.1421 119.908 25.911 120.107 25.696C120.305 25.4702 120.554 25.2928 120.851 25.1638C121.149 25.0348 121.44 24.9703 121.724 24.9703Z" fill="#003F62"/>
<path d="M1.63858 5.37269C2.95698 4.98642 4.03054 4.67038 4.85925 4.42457C5.68796 4.14365 6.36599 3.91539 6.89335 3.73982C7.49605 3.52912 7.94807 3.33599 8.24942 3.16041L9.60549 2.52833C10.1328 2.28252 10.8109 1.96648 11.6396 1.5802C12.4683 1.15882 13.5419 0.632083 14.8603 1.73285e-06C14.5589 1.3344 14.3329 2.59856 14.1822 3.79249C14.0692 4.95131 13.975 5.98722 13.8997 6.90022C13.7867 7.95369 13.7302 8.91937 13.7302 9.79726C13.6925 10.5347 13.636 11.5179 13.5607 12.747C13.523 13.976 13.4665 15.3104 13.3912 16.7502C13.3158 18.1899 13.2405 19.6648 13.1652 21.1747C13.0898 22.6847 13.0333 24.1069 12.9957 25.4413C12.9957 26.7406 13.0145 27.8643 13.0522 28.8124C13.1275 29.7605 13.2593 30.4101 13.4477 30.7613C13.636 31.1827 13.8809 31.5865 14.1822 31.9728C14.4459 32.3239 14.7472 32.7278 15.0863 33.1843C15.463 33.6057 15.915 34.027 16.4423 34.4484C15.576 34.624 14.7661 34.782 14.0127 34.9225C13.2593 35.0278 12.6001 35.1156 12.0351 35.1859C11.3571 35.2912 10.7544 35.379 10.227 35.4492C9.66199 35.4843 8.88978 35.5721 7.9104 35.7126C7.08169 35.8179 6.02697 35.9584 4.74624 36.134C3.46551 36.2744 1.88343 36.4325 0 36.608C0.979383 36.0462 1.75159 35.5019 2.31662 34.9752C2.91932 34.4484 3.37134 33.9919 3.67269 33.6057C4.0117 33.1492 4.21888 32.7102 4.29422 32.2888C4.33189 32.0079 4.38839 31.2529 4.46373 30.0239C4.57673 28.7597 4.6709 27.2848 4.74624 25.5993C4.85925 23.8786 4.95342 22.0526 5.02876 20.1213C5.14176 18.1548 5.2171 16.3288 5.25477 14.6432C5.29244 12.9577 5.31127 11.5179 5.31127 10.324C5.31127 9.13006 5.25477 8.4102 5.14176 8.16439C4.99109 7.91858 4.76508 7.63765 4.46373 7.32161C4.20005 7.04068 3.8422 6.7422 3.39017 6.42616C2.97582 6.11012 2.39195 5.75897 1.63858 5.37269Z" fill="#003F62"/>
<path d="M36.9719 0.273901C40.1348 0.273901 42.8735 0.723382 45.1878 1.62234C47.5408 2.5213 49.3151 3.74389 50.5109 5.2901C51.7452 6.80035 52.3623 8.4904 52.3623 10.3602C52.3623 12.2301 51.8223 13.9201 50.7423 15.4304C49.6623 16.9047 48.2736 17.9475 46.5764 18.5588V18.7745C48.7751 19.4218 50.4723 20.5544 51.668 22.1726C52.9024 23.7547 53.5195 25.6785 53.5195 27.9439C53.3652 31.1082 51.8802 33.6972 49.0644 35.7109C46.2872 37.6886 42.1792 38.6775 36.7404 38.6775C32.9989 38.6775 29.8552 38.21 27.3094 37.2751C24.7636 36.3402 22.8736 35.0637 21.6392 33.4455C20.4049 31.8274 19.7878 30.0115 19.7878 27.9978V26.8651H29.9709C29.9709 29.8137 31.9767 31.288 35.9883 31.288C39.9998 31.288 42.0056 29.6339 42.0056 26.3258C42.0056 25.0672 41.6199 24.1143 40.8484 23.4671C40.1155 22.7839 39.1512 22.4423 37.9555 22.4423H33.7318V15.8079H37.0297C38.2255 15.8079 39.1898 15.4843 39.9227 14.8371C40.6941 14.1538 41.0798 13.183 41.0798 11.9244C41.0798 10.7378 40.617 9.73096 39.6912 8.90392C38.8041 8.07688 37.5697 7.66335 35.9883 7.66335C34.3296 7.66335 33.0375 8.0589 32.1117 8.84998C31.186 9.64107 30.7231 10.6119 30.7231 11.7626H21.0607V10.4142C21.0607 8.54434 21.6778 6.83631 22.9121 5.2901C24.185 3.74389 26.0172 2.5213 28.4087 1.62234C30.8388 0.723382 33.6932 0.273901 36.9719 0.273901Z" fill="#003F62"/>
<path fill-rule="evenodd" clip-rule="evenodd" d="M85.0994 26.167C79.2514 25.3739 74.8067 23.564 71.0546 20.4479C70.5158 20.0004 70.7611 20.1406 71.7522 20.8467C77.5591 24.9833 85.9166 26.7197 92.4733 25.1517C95.5739 24.4101 97.889 23.3012 103.624 19.8103C108.02 17.1351 110.345 15.9142 112.605 15.0951C115.323 14.1098 117.4 13.6947 120.279 13.5611C121.224 13.5173 121.998 13.4509 121.998 13.4136C121.998 13.1849 118.799 10.2148 117.192 8.95108C112.177 5.00888 106.822 2.61516 100.889 1.66447C99.4968 1.44135 98.5732 1.38327 96.3185 1.37697C92.135 1.36538 89.5207 1.82057 85.8473 3.19986C82.6762 4.39067 80.2555 5.80901 75.0146 9.5475C72.0891 11.6342 71.2091 12.1075 69.4998 12.5131C68.2168 12.8176 66.1365 12.8455 64.7746 12.5766C63.3856 12.3023 61.3746 11.4936 59.7605 10.5602C58.3875 9.76608 58.0072 9.61339 58.0072 9.85591C58.0072 10.0582 59.6523 11.3456 60.999 12.1968C65.8057 15.2359 72.6137 16.9101 80.2005 16.9191C85.1788 16.9251 88.4051 16.1991 95.4117 13.4969C99.1527 12.054 101.793 11.2727 103.798 11.016C105.424 10.8077 107.828 10.71 107.538 10.8639C107.401 10.9366 106.893 10.997 106.409 10.9981C103.595 11.0043 100.353 11.9363 94.4071 14.4479C88.6032 16.8997 84.912 17.7035 79.4482 17.7055C70.0993 17.7088 62.3622 15.3772 57.2878 11.0273C56.6469 10.4779 56.5113 10.2761 56.5113 9.87153C56.5113 8.9502 57.8672 8.2123 58.8372 8.60588C59.0387 8.68752 59.7306 9.06308 60.3747 9.44028C62.8467 10.8881 64.8357 11.5256 66.8994 11.5315C68.4239 11.5359 69.6912 11.2502 70.8333 10.6445C71.2293 10.4343 72.8248 9.34579 74.3788 8.22528C75.9329 7.10489 77.953 5.71843 78.868 5.14444C85.0302 1.27808 90.9764 -0.312741 97.9077 0.0503489C106.809 0.51662 115.235 4.4713 122.041 11.3779C123.057 12.4096 125.023 14.7965 124.92 14.8745C124.884 14.9012 123.963 14.8554 122.873 14.7726C119.338 14.5043 116.189 14.9563 112.773 16.2226C110.518 17.0587 108.79 17.9324 105.045 20.1316C99.6168 23.3184 97.6733 24.2957 94.9468 25.2095C92.5818 26.0022 91.6153 26.1471 88.4236 26.187C86.8238 26.207 85.3279 26.198 85.0994 26.167ZM108.493 10.911C108.699 10.8811 109.036 10.8811 109.241 10.911C109.447 10.9411 109.279 10.9657 108.867 10.9657C108.456 10.9657 108.288 10.9411 108.493 10.911Z" fill="#003F62"/>
</svg>
